<?xml version="1.0" encoding="UTF-8" ?>

<svg width="300pt" height="300pt" viewBox="0 0 300 300" version="1.1" xmlns="http://www.w3.org/2000/svg">
<g id="#e5e0dbff">
<path fill="#e5e0db" stroke="#e5e0db" stroke-width="0.09375"  d=" M 141.71 0.00 L 158.10 0.00 C 189.48 1.79 220.26 13.48 244.61 33.44 C 277.26 59.58 297.85 99.95 300.00 141.72 L 300.00 158.10 C 298.27 187.78 287.78 216.94 269.69 240.59 C 249.14 267.88 218.98 287.80 185.75 295.82 C 176.72 298.13 167.43 299.26 158.15 300.00 L 141.62 300.00 C 110.07 298.23 79.20 286.29 54.83 266.15 C 29.86 245.73 11.73 217.06 4.17 185.69 C 1.86 176.67 0.74 167.41 0.00 158.14 L 0.00 141.61 C 2.15 101.02 21.61 61.74 52.73 35.59 C 77.43 14.37 109.23 1.80 141.71 0.00 M 84.69 30.95 C 87.40 39.09 90.13 47.23 92.83 55.38 C 98.58 59.26 104.47 62.93 110.28 66.72 C 100.55 65.54 90.86 64.14 81.14 62.90 C 78.20 54.36 75.41 45.77 72.54 37.21 C 58.40 46.33 46.71 59.33 39.59 74.61 C 30.64 93.69 28.22 115.25 29.35 136.11 C 29.93 146.88 36.29 156.94 45.62 162.29 C 59.21 170.25 75.50 170.77 90.83 170.52 C 85.72 202.29 84.25 234.52 83.74 266.65 C 90.51 267.43 97.26 268.36 104.03 269.13 C 103.23 251.49 102.42 233.83 102.60 216.17 C 107.20 214.28 112.32 214.83 116.96 216.25 C 117.33 234.59 116.40 252.91 116.00 271.24 C 120.48 271.19 125.28 271.81 129.38 269.58 C 132.38 268.22 134.08 265.05 134.45 261.89 C 136.65 247.02 137.68 232.01 138.34 217.00 C 141.50 212.65 147.77 215.44 151.79 217.08 C 151.52 227.70 150.91 238.44 152.75 248.96 C 153.56 253.16 154.74 257.85 158.52 260.39 C 162.43 257.21 165.71 253.20 167.54 248.47 C 171.82 237.97 171.32 226.40 172.39 215.31 C 178.09 216.11 183.95 218.64 187.43 223.32 C 188.00 237.54 188.76 251.77 189.34 265.99 C 191.21 269.50 194.65 271.91 198.31 273.31 C 200.54 271.08 202.76 268.85 205.00 266.64 C 205.07 248.68 204.11 230.73 202.35 212.86 C 201.61 205.81 201.97 198.60 203.83 191.74 C 206.24 182.77 211.84 174.87 219.10 169.15 C 230.67 159.98 244.85 155.12 258.73 150.65 C 259.05 129.81 256.20 108.77 249.11 89.11 C 241.34 67.61 227.48 47.94 208.41 35.05 C 200.87 42.06 192.54 48.14 184.25 54.24 C 182.33 55.61 180.52 57.35 178.11 57.80 C 170.91 59.54 163.51 60.80 156.08 60.71 C 162.67 56.92 169.48 53.25 175.20 48.18 C 180.26 40.62 185.87 33.43 191.89 26.60 C 178.80 19.11 164.06 14.32 148.94 13.56 C 126.33 12.32 104.09 19.76 84.69 30.95 Z" />
<path fill="#e5e0db" stroke="#e5e0db" stroke-width="0.09375"  d=" M 75.47 81.63 C 84.08 78.80 93.60 81.34 101.00 86.16 C 114.95 95.52 122.04 112.63 122.27 129.05 C 122.21 132.21 122.75 135.88 120.45 138.44 C 118.27 140.68 114.95 140.46 112.09 140.64 C 99.05 141.01 86.02 141.54 72.99 140.77 C 66.99 140.41 60.49 140.37 55.42 136.66 C 48.31 131.74 46.45 122.10 47.95 114.04 C 49.93 99.15 61.45 86.44 75.47 81.63 Z" />
<path fill="#e5e0db" stroke="#e5e0db" stroke-width="0.09375"  d=" M 206.42 81.63 C 215.83 79.36 226.86 79.73 234.54 86.31 C 243.00 93.65 246.04 105.14 247.51 115.82 C 247.94 121.38 249.34 127.21 247.51 132.65 C 246.13 136.30 242.01 137.47 238.46 137.44 C 220.51 137.45 202.48 139.46 184.59 137.19 C 179.50 136.47 175.63 132.00 174.96 127.02 C 173.94 118.91 176.42 110.79 179.70 103.45 C 184.69 92.60 194.70 84.20 206.42 81.63 Z" />
<path fill="#e5e0db" stroke="#e5e0db" stroke-width="0.09375"  d=" M 153.38 135.48 C 156.40 134.39 159.50 136.44 161.01 138.99 C 168.96 150.79 174.61 164.59 175.03 178.96 C 175.12 183.87 174.17 189.80 169.51 192.49 C 164.34 195.16 157.16 195.41 152.75 191.15 C 148.65 186.86 148.12 180.56 147.98 174.92 C 148.14 163.27 148.72 151.60 150.48 140.07 C 150.78 138.25 151.49 136.17 153.38 135.48 Z" />
<path fill="#e5e0db" stroke="#e5e0db" stroke-width="0.09375"  d=" M 136.36 136.37 C 138.88 134.59 142.02 136.78 142.27 139.56 C 144.09 150.63 144.78 161.87 144.82 173.08 C 145.00 179.33 144.72 186.40 140.32 191.31 C 134.27 197.38 122.54 194.30 119.40 186.57 C 117.53 182.27 118.11 177.41 118.88 172.94 C 120.85 161.98 125.40 151.61 131.29 142.21 C 132.71 140.07 134.08 137.71 136.36 136.37 Z" />
</g>
<g>
<path  stroke="#000000" stroke-width="0.09375"  d=" M 84.69 30.95 C 104.09 19.76 126.33 12.32 148.94 13.56 C 164.06 14.32 178.80 19.11 191.89 26.60 C 185.87 33.43 180.26 40.62 175.20 48.18 C 169.48 53.25 162.67 56.92 156.08 60.71 C 163.51 60.80 170.91 59.54 178.11 57.80 C 180.52 57.35 182.33 55.61 184.25 54.24 C 192.54 48.14 200.87 42.06 208.41 35.05 C 227.48 47.94 241.34 67.61 249.11 89.11 C 256.20 108.77 259.05 129.81 258.73 150.65 C 244.85 155.12 230.67 159.98 219.10 169.15 C 211.84 174.87 206.24 182.77 203.83 191.74 C 201.97 198.60 201.61 205.81 202.35 212.86 C 204.11 230.73 205.07 248.68 205.00 266.64 C 202.76 268.85 200.54 271.08 198.31 273.31 C 194.65 271.91 191.21 269.50 189.34 265.99 C 188.76 251.77 188.00 237.54 187.43 223.32 C 183.95 218.64 178.09 216.11 172.39 215.31 C 171.32 226.40 171.82 237.97 167.54 248.47 C 165.71 253.20 162.43 257.21 158.52 260.39 C 154.74 257.85 153.56 253.16 152.75 248.96 C 150.91 238.44 151.52 227.70 151.79 217.08 C 147.77 215.44 141.50 212.65 138.34 217.00 C 137.68 232.01 136.65 247.02 134.45 261.89 C 134.08 265.05 132.38 268.22 129.38 269.58 C 125.28 271.81 120.48 271.19 116.00 271.24 C 116.40 252.91 117.33 234.59 116.96 216.25 C 112.32 214.83 107.20 214.28 102.60 216.17 C 102.42 233.83 103.23 251.49 104.03 269.13 C 97.26 268.36 90.51 267.43 83.74 266.65 C 84.25 234.52 85.72 202.29 90.83 170.52 C 75.50 170.77 59.21 170.25 45.62 162.29 C 36.29 156.94 29.93 146.88 29.35 136.11 C 28.22 115.25 30.64 93.69 39.59 74.61 C 46.71 59.33 58.40 46.33 72.54 37.21 C 75.41 45.77 78.20 54.36 81.14 62.90 C 90.86 64.14 100.55 65.54 110.28 66.72 C 104.47 62.93 98.58 59.26 92.83 55.38 C 90.13 47.23 87.40 39.09 84.69 30.95 M 75.47 81.63 C 61.45 86.44 49.93 99.15 47.95 114.04 C 46.45 122.10 48.31 131.74 55.42 136.66 C 60.49 140.37 66.99 140.41 72.99 140.77 C 86.02 141.54 99.05 141.01 112.09 140.64 C 114.95 140.46 118.27 140.68 120.45 138.44 C 122.75 135.88 122.21 132.21 122.27 129.05 C 122.04 112.63 114.95 95.52 101.00 86.16 C 93.60 81.34 84.08 78.80 75.47 81.63 M 206.42 81.63 C 194.70 84.20 184.69 92.60 179.70 103.45 C 176.42 110.79 173.94 118.91 174.96 127.02 C 175.63 132.00 179.50 136.47 184.59 137.19 C 202.48 139.46 220.51 137.45 238.46 137.44 C 242.01 137.47 246.13 136.30 247.51 132.65 C 249.34 127.21 247.94 121.38 247.51 115.82 C 246.04 105.14 243.00 93.65 234.54 86.31 C 226.86 79.73 215.83 79.36 206.42 81.63 M 153.38 135.48 C 151.49 136.17 150.78 138.25 150.48 140.07 C 148.72 151.60 148.14 163.27 147.98 174.92 C 148.12 180.56 148.65 186.86 152.75 191.15 C 157.16 195.41 164.34 195.16 169.51 192.49 C 174.17 189.80 175.12 183.87 175.03 178.96 C 174.61 164.59 168.96 150.79 161.01 138.99 C 159.50 136.44 156.40 134.39 153.38 135.48 M 136.36 136.37 C 134.08 137.71 132.71 140.07 131.29 142.21 C 125.40 151.61 120.85 161.98 118.88 172.94 C 118.11 177.41 117.53 182.27 119.40 186.57 C 122.54 194.30 134.27 197.38 140.32 191.31 C 144.72 186.40 145.00 179.33 144.82 173.08 C 144.78 161.87 144.09 150.63 142.27 139.56 C 142.02 136.78 138.88 134.59 136.36 136.37 Z" />
</g>
</svg>
