<?xml version="1.0" encoding="UTF-8" ?>

<svg width="300pt" height="300pt" viewBox="0 0 300 300" version="1.1" xmlns="http://www.w3.org/2000/svg">
<g id="#e6fcffff">
<path fill="#e6fcff" stroke="#e6fcff" stroke-width="0.09375"  d=" M 141.71 0.00 L 158.11 0.00 C 189.68 1.82 220.66 13.63 245.06 33.81 C 277.46 59.95 297.86 100.15 300.00 141.72 L 300.00 158.11 C 298.25 188.30 287.41 217.94 268.77 241.80 C 252.47 262.95 230.40 279.61 205.59 289.47 C 190.49 295.59 174.37 298.90 158.15 300.00 L 141.59 300.00 C 110.07 298.22 79.23 286.31 54.88 266.19 C 29.69 245.62 11.47 216.64 3.99 184.97 C 1.78 176.18 0.73 167.16 0.00 158.14 L 0.00 141.59 C 2.16 101.03 21.59 61.78 52.68 35.63 C 77.38 14.38 109.20 1.80 141.71 0.00 M 133.14 30.22 C 122.91 49.92 119.17 72.13 110.47 92.46 C 102.19 111.66 90.55 129.55 85.61 150.08 C 79.99 173.76 80.33 199.46 89.94 222.08 C 97.28 239.51 109.90 255.32 127.02 263.89 C 138.26 269.63 151.60 271.15 163.78 267.75 C 181.62 263.03 196.24 249.33 203.87 232.75 C 211.91 215.92 212.72 196.58 209.74 178.43 C 206.68 160.91 198.66 144.69 189.04 129.89 C 179.28 114.48 167.20 100.60 158.34 84.61 C 147.45 62.57 143.57 37.53 145.26 13.11 C 140.37 18.14 136.44 24.04 133.14 30.22 Z" />
<path fill="#e6fcff" stroke="#e6fcff" stroke-width="0.09375"  d=" M 162.56 134.41 C 172.05 139.94 180.45 147.95 184.69 158.24 C 189.12 168.57 189.21 180.18 187.77 191.16 C 187.47 194.57 185.88 198.00 182.98 199.95 C 180.63 201.46 177.07 200.88 175.60 198.43 C 173.95 195.95 174.10 192.79 174.44 189.96 C 175.60 180.63 175.69 171.09 173.81 161.85 C 171.93 152.06 167.68 142.90 162.56 134.41 Z" />
</g>
<g>
<path  stroke="#000000" stroke-width="0.09375"  d=" M 133.14 30.22 C 136.44 24.04 140.37 18.14 145.26 13.11 C 143.57 37.53 147.45 62.57 158.34 84.61 C 167.20 100.60 179.28 114.48 189.04 129.89 C 198.66 144.69 206.68 160.91 209.74 178.43 C 212.72 196.58 211.91 215.92 203.87 232.75 C 196.24 249.33 181.62 263.03 163.78 267.75 C 151.60 271.15 138.26 269.63 127.02 263.89 C 109.90 255.32 97.28 239.51 89.94 222.08 C 80.33 199.46 79.99 173.76 85.61 150.08 C 90.55 129.55 102.19 111.66 110.47 92.46 C 119.17 72.13 122.91 49.92 133.14 30.22 M 162.56 134.41 C 167.68 142.90 171.93 152.06 173.81 161.85 C 175.69 171.09 175.60 180.63 174.44 189.96 C 174.10 192.79 173.95 195.95 175.60 198.43 C 177.07 200.88 180.63 201.46 182.98 199.95 C 185.88 198.00 187.47 194.57 187.77 191.16 C 189.21 180.18 189.12 168.57 184.69 158.24 C 180.45 147.95 172.05 139.94 162.56 134.41 Z" />
</g>
</svg>
