<?xml version="1.0" encoding="UTF-8" ?>

<svg width="300pt" height="300pt" viewBox="0 0 300 300" version="1.1" xmlns="http://www.w3.org/2000/svg">
<g id="#c8e4beff">
<path fill="#c8e4be"  d=" M 141.65 0.00 L 158.20 0.00 C 189.99 1.85 221.15 13.84 245.62 34.27 C 277.69 60.41 297.84 100.35 300.00 141.65 L 300.00 158.20 C 298.22 188.36 287.39 217.98 268.76 241.81 C 248.08 268.69 218.02 288.22 185.00 296.00 C 176.24 298.19 167.27 299.27 158.29 300.00 L 141.59 300.00 C 107.92 298.12 75.02 284.61 49.98 261.98 C 20.42 235.84 2.18 197.64 0.00 158.27 L 0.00 141.59 C 2.16 101.02 21.60 61.75 52.71 35.61 C 77.39 14.39 109.17 1.82 141.65 0.00 M 141.44 12.58 C 134.26 14.02 128.04 18.14 121.96 22.02 C 112.75 27.98 105.60 36.51 99.23 45.32 C 97.05 49.06 90.12 48.15 89.19 43.73 C 87.80 39.12 81.77 39.27 78.02 40.45 C 69.36 43.46 62.95 50.41 56.64 56.74 C 53.04 60.50 48.55 63.93 47.17 69.20 C 45.95 74.51 47.17 80.03 49.21 84.97 C 51.28 89.45 49.86 95.03 46.60 98.56 C 41.64 101.35 35.92 102.79 31.38 106.36 C 23.04 112.37 21.70 125.33 27.48 133.53 C 29.86 137.12 30.93 141.77 29.64 145.95 C 28.91 149.15 25.05 150.30 24.34 153.54 C 22.59 159.85 25.12 166.41 28.13 171.92 C 32.61 179.70 35.98 188.03 40.12 195.97 C 41.49 198.54 43.78 201.04 46.86 201.27 C 50.93 201.65 54.43 198.95 57.04 196.12 C 63.09 189.48 68.85 182.54 75.35 176.32 C 78.53 173.42 81.67 170.07 85.99 168.95 C 90.30 167.63 94.89 169.22 98.45 171.71 C 108.86 178.69 117.84 187.77 125.03 198.01 C 127.76 212.08 123.62 226.65 117.38 239.26 C 114.73 239.29 112.07 239.36 109.46 238.84 C 107.67 235.86 105.49 232.71 102.08 231.48 C 98.43 231.13 95.93 234.22 93.71 236.61 C 89.22 241.60 82.41 243.17 76.41 245.54 C 72.95 246.98 71.84 251.97 73.97 254.90 C 76.88 257.69 81.27 257.67 85.03 257.71 C 92.02 257.17 99.05 257.74 105.99 258.65 C 110.62 265.30 118.23 269.03 125.94 270.81 C 146.51 275.80 167.99 276.45 188.97 274.08 C 199.82 273.19 208.42 265.83 217.00 259.91 C 221.74 256.84 226.40 252.69 227.80 247.01 C 228.61 245.01 226.70 243.66 225.20 242.85 C 221.76 241.05 217.98 239.33 214.01 239.54 C 209.74 241.06 206.59 244.56 202.72 246.81 C 197.18 250.58 189.97 248.79 184.08 246.88 C 177.72 245.03 176.04 237.75 174.88 232.07 C 172.55 217.50 174.05 202.17 179.43 188.42 C 184.75 181.86 193.30 179.20 201.21 177.26 C 214.90 174.24 229.06 173.88 243.02 174.59 C 250.83 176.78 258.81 179.77 267.08 178.47 C 270.95 177.75 275.54 177.55 278.31 174.34 C 281.47 170.88 281.49 165.70 280.42 161.40 C 278.77 156.48 274.43 153.15 270.30 150.35 C 273.19 146.43 274.46 141.62 275.23 136.88 C 276.42 126.96 275.49 116.56 271.73 107.25 C 267.71 97.38 258.63 90.75 249.01 86.87 C 249.10 79.06 248.43 70.68 243.90 64.03 C 241.41 60.24 237.50 57.82 234.27 54.75 C 228.12 49.12 223.49 42.13 218.81 35.30 C 214.04 28.99 204.97 28.67 197.88 30.25 C 185.30 33.12 175.79 42.84 168.75 53.15 C 165.65 51.48 163.25 48.52 162.89 44.94 C 161.39 36.04 169.38 28.67 167.77 19.78 C 167.03 16.52 163.39 15.46 160.60 14.60 C 154.34 13.22 147.89 11.41 141.44 12.58 Z" />
<path fill="#c8e4be"  d=" M 135.26 58.67 C 133.24 55.42 134.27 51.27 136.72 48.55 C 144.46 51.55 150.09 59.88 148.04 68.27 C 143.48 65.58 138.25 63.27 135.26 58.67 Z" />
<path fill="#c8e4be"  d=" M 71.39 96.45 C 75.55 93.73 80.94 95.04 85.04 97.23 C 78.58 101.26 73.22 106.74 67.05 111.16 C 63.76 113.55 59.33 112.41 56.40 109.99 C 61.24 105.32 65.63 100.03 71.39 96.45 Z" />
<path fill="#c8e4be"  d=" M 137.13 96.06 C 139.59 94.62 141.01 97.51 141.28 99.52 C 143.15 109.60 142.24 119.97 140.52 130.01 C 134.21 125.01 129.43 118.30 126.01 111.06 C 129.22 105.76 132.04 99.84 137.13 96.06 Z" />
<path fill="#c8e4be"  d=" M 173.05 118.30 C 174.72 115.40 177.20 111.31 181.06 111.81 C 184.73 113.71 185.85 118.23 187.21 121.83 C 183.71 128.01 178.95 133.47 173.23 137.70 C 173.29 131.23 173.28 124.76 173.05 118.30 Z" />
<path fill="#c8e4be"  d=" M 89.45 128.56 C 94.16 121.95 102.18 118.48 110.09 117.77 C 111.40 117.43 112.36 117.84 112.94 119.01 C 114.95 122.21 115.63 126.00 116.47 129.63 C 107.49 130.88 98.34 130.16 89.45 128.56 Z" />
<path fill="#c8e4be"  d=" M 172.03 171.10 C 182.40 160.87 192.64 150.46 201.62 138.96 C 204.25 143.90 207.95 148.18 212.18 151.82 C 199.66 159.91 185.90 165.77 172.03 171.10 Z" />
<path fill="#c8e4be"  d=" M 94.44 151.17 C 104.04 151.97 113.74 152.91 123.31 151.27 C 126.12 154.07 128.17 161.23 123.52 163.52 C 119.66 165.06 115.59 163.20 111.86 162.13 C 105.20 160.05 99.64 155.67 94.44 151.17 Z" />
</g>
<g>
<path   d=" M 141.44 12.58 C 147.89 11.41 154.34 13.22 160.60 14.60 C 163.39 15.46 167.03 16.52 167.77 19.78 C 169.38 28.67 161.39 36.04 162.89 44.94 C 163.25 48.52 165.65 51.48 168.75 53.15 C 175.79 42.84 185.30 33.12 197.88 30.25 C 204.97 28.67 214.04 28.99 218.81 35.30 C 223.49 42.13 228.12 49.12 234.27 54.75 C 237.50 57.82 241.41 60.24 243.90 64.03 C 248.43 70.68 249.10 79.06 249.01 86.87 C 258.63 90.75 267.71 97.38 271.73 107.25 C 275.49 116.56 276.42 126.96 275.23 136.88 C 274.46 141.62 273.19 146.43 270.30 150.35 C 274.43 153.15 278.77 156.48 280.42 161.40 C 281.49 165.70 281.47 170.88 278.31 174.34 C 275.54 177.55 270.95 177.75 267.08 178.47 C 258.81 179.77 250.83 176.78 243.02 174.59 C 229.06 173.88 214.90 174.24 201.21 177.26 C 193.30 179.20 184.75 181.86 179.43 188.42 C 174.05 202.17 172.55 217.50 174.88 232.07 C 176.04 237.75 177.72 245.03 184.08 246.88 C 189.97 248.79 197.18 250.58 202.72 246.81 C 206.59 244.56 209.74 241.06 214.01 239.54 C 217.98 239.33 221.76 241.05 225.20 242.85 C 226.70 243.66 228.61 245.01 227.80 247.01 C 226.40 252.69 221.74 256.84 217.00 259.91 C 208.42 265.83 199.82 273.19 188.97 274.08 C 167.99 276.45 146.51 275.80 125.94 270.81 C 118.23 269.03 110.62 265.30 105.99 258.65 C 99.05 257.74 92.02 257.17 85.03 257.71 C 81.27 257.67 76.88 257.69 73.97 254.90 C 71.84 251.97 72.95 246.98 76.41 245.54 C 82.41 243.17 89.22 241.60 93.71 236.61 C 95.93 234.22 98.43 231.13 102.08 231.48 C 105.49 232.71 107.67 235.86 109.46 238.84 C 112.07 239.36 114.73 239.29 117.38 239.26 C 123.62 226.65 127.76 212.08 125.03 198.01 C 117.84 187.77 108.86 178.69 98.45 171.71 C 94.89 169.22 90.30 167.63 85.99 168.95 C 81.67 170.07 78.53 173.42 75.35 176.32 C 68.85 182.54 63.09 189.48 57.04 196.12 C 54.43 198.95 50.93 201.65 46.86 201.27 C 43.78 201.04 41.49 198.54 40.12 195.97 C 35.98 188.03 32.61 179.70 28.13 171.92 C 25.12 166.41 22.59 159.85 24.34 153.54 C 25.05 150.30 28.91 149.15 29.64 145.95 C 30.93 141.77 29.86 137.12 27.48 133.53 C 21.70 125.33 23.04 112.37 31.38 106.36 C 35.92 102.79 41.64 101.35 46.60 98.56 C 49.86 95.03 51.28 89.45 49.21 84.97 C 47.17 80.03 45.95 74.51 47.17 69.20 C 48.55 63.93 53.04 60.50 56.64 56.74 C 62.95 50.41 69.36 43.46 78.02 40.45 C 81.77 39.27 87.80 39.12 89.19 43.73 C 90.12 48.15 97.05 49.06 99.23 45.32 C 105.60 36.51 112.75 27.98 121.96 22.02 C 128.04 18.14 134.26 14.02 141.44 12.58 M 135.26 58.67 C 138.25 63.27 143.48 65.58 148.04 68.27 C 150.09 59.88 144.46 51.55 136.72 48.55 C 134.27 51.27 133.24 55.42 135.26 58.67 M 71.39 96.45 C 65.63 100.03 61.24 105.32 56.40 109.99 C 59.33 112.41 63.76 113.55 67.05 111.16 C 73.22 106.74 78.58 101.26 85.04 97.23 C 80.94 95.04 75.55 93.73 71.39 96.45 M 137.13 96.06 C 132.04 99.84 129.22 105.76 126.01 111.06 C 129.43 118.30 134.21 125.01 140.52 130.01 C 142.24 119.97 143.15 109.60 141.28 99.52 C 141.01 97.51 139.59 94.62 137.13 96.06 M 173.05 118.30 C 173.28 124.76 173.29 131.23 173.23 137.70 C 178.95 133.47 183.71 128.01 187.21 121.83 C 185.85 118.23 184.73 113.71 181.06 111.81 C 177.20 111.31 174.72 115.40 173.05 118.30 M 89.45 128.56 C 98.34 130.16 107.49 130.88 116.47 129.63 C 115.63 126.00 114.95 122.21 112.94 119.01 C 112.36 117.84 111.40 117.43 110.09 117.77 C 102.18 118.48 94.16 121.95 89.45 128.56 M 172.03 171.10 C 185.90 165.77 199.66 159.91 212.18 151.82 C 207.95 148.18 204.25 143.90 201.62 138.96 C 192.64 150.46 182.40 160.87 172.03 171.10 M 94.44 151.17 C 99.64 155.67 105.20 160.05 111.86 162.13 C 115.59 163.20 119.66 165.06 123.52 163.52 C 128.17 161.23 126.12 154.07 123.31 151.27 C 113.74 152.91 104.04 151.97 94.44 151.17 Z" />
</g>
</svg>
