<?xml version="1.0" encoding="UTF-8" ?>

<svg width="300pt" height="300pt" viewBox="0 0 300 300" version="1.1" xmlns="http://www.w3.org/2000/svg">
<g id="#fac8c0ff">
<path fill="#fac8c0"  d=" M 141.77 0.00 L 157.54 0.00 C 189.56 1.65 220.97 13.72 245.62 34.27 C 277.71 60.43 297.87 100.42 300.00 141.76 L 300.00 158.07 C 298.27 188.04 287.59 217.48 269.19 241.24 C 248.79 268.03 219.11 287.62 186.40 295.66 C 177.13 298.06 167.61 299.28 158.08 300.00 L 141.63 300.00 C 107.48 298.11 74.15 284.22 48.96 261.06 C 19.94 234.92 2.10 197.06 0.00 158.09 L 0.00 141.63 C 2.11 102.04 20.64 63.66 50.49 37.54 C 75.52 15.17 108.27 1.82 141.77 0.00 M 93.45 28.75 C 96.98 33.18 102.46 35.20 107.71 36.76 C 97.71 38.26 87.71 40.04 78.09 43.20 C 73.23 44.88 68.24 46.80 64.48 50.43 C 56.05 58.37 50.65 68.87 46.37 79.49 C 42.19 90.20 38.80 101.22 35.79 112.31 C 39.75 105.44 43.25 98.09 49.07 92.55 C 50.52 96.44 50.23 100.66 50.26 104.74 C 55.00 93.81 59.78 82.72 61.42 70.82 C 62.04 67.93 62.64 63.84 66.01 63.00 C 69.28 62.65 70.39 66.53 70.39 69.11 C 70.19 82.17 64.39 94.18 59.44 106.00 C 64.46 99.33 70.14 93.04 73.78 85.46 C 76.47 80.13 78.92 74.49 83.07 70.10 C 90.55 63.42 100.57 60.34 110.42 59.57 C 110.86 62.96 109.37 66.09 107.78 68.97 C 112.37 68.09 116.10 64.53 116.98 59.90 C 118.33 53.54 120.21 46.67 125.47 42.39 C 128.58 39.76 133.43 39.90 136.44 42.62 C 140.41 46.22 141.89 51.67 142.85 56.76 C 148.07 60.54 149.46 67.37 149.28 73.45 C 144.32 73.39 139.42 71.83 135.61 68.61 C 135.36 71.99 136.40 75.30 138.40 78.00 C 134.31 78.61 130.14 77.93 126.41 76.15 C 126.32 79.45 127.35 82.60 128.88 85.48 C 126.20 85.00 123.60 84.20 121.10 83.12 C 124.25 89.82 129.54 95.78 136.66 98.29 C 147.31 102.13 158.91 102.00 170.06 101.33 C 176.37 103.67 178.88 110.94 178.94 117.17 C 182.50 108.12 178.52 97.74 171.60 91.45 C 167.84 87.84 164.26 82.26 166.73 76.97 C 170.63 70.95 177.87 67.74 184.83 67.04 C 189.76 66.75 195.35 67.26 199.14 70.77 C 204.46 76.55 208.01 84.09 208.47 91.99 C 208.45 94.56 208.01 97.34 206.26 99.35 C 203.31 101.72 198.62 102.01 195.75 99.35 C 190.86 95.25 188.83 89.01 186.21 83.42 C 186.10 96.40 190.07 110.97 201.94 117.97 C 201.54 120.55 200.63 123.02 198.91 125.03 C 203.79 123.48 209.13 123.19 214.10 124.51 C 220.33 126.17 225.42 131.66 226.33 138.09 C 227.03 145.21 226.16 152.63 223.06 159.13 C 221.40 162.28 218.82 165.64 215.01 166.00 C 212.00 166.01 210.26 163.14 209.44 160.62 C 206.96 152.49 207.34 143.86 205.76 135.56 C 198.67 150.31 199.56 167.28 202.08 183.01 C 198.31 196.15 191.97 209.33 181.01 217.94 C 176.23 221.24 169.93 224.70 164.14 221.93 C 157.36 218.97 150.60 214.52 147.24 207.71 C 145.25 203.94 146.58 199.35 149.44 196.43 C 156.43 188.45 168.07 186.98 174.95 178.89 C 182.15 170.99 186.18 159.21 182.38 148.83 C 180.30 143.77 179.62 137.42 182.93 132.72 C 170.23 143.05 154.22 148.69 138.04 150.27 C 129.81 150.15 122.26 146.27 114.16 145.22 C 104.08 143.76 94.29 147.84 85.60 152.55 C 73.69 159.41 62.70 168.68 55.88 180.78 C 48.35 195.23 48.91 212.51 52.94 227.92 C 57.60 246.43 70.31 262.72 86.97 271.98 C 105.13 281.97 126.90 281.69 146.75 277.94 C 146.56 280.96 145.57 283.83 144.55 286.65 C 156.88 284.43 169.05 280.85 180.28 275.23 C 190.80 270.02 200.31 262.94 208.76 254.83 C 202.33 257.23 195.89 260.04 188.93 260.43 C 185.49 260.54 181.06 261.68 178.51 258.63 C 176.18 256.09 177.81 251.56 181.15 250.93 C 197.81 246.66 215.09 243.50 230.19 234.83 C 227.96 241.64 224.15 247.87 218.81 252.68 C 226.71 249.78 233.88 244.71 238.80 237.84 C 249.20 223.71 251.98 205.78 253.67 188.75 C 250.69 194.47 248.00 200.72 242.80 204.81 C 240.10 206.76 235.58 207.51 233.24 204.63 C 231.25 201.39 232.67 197.37 234.21 194.26 C 237.01 188.58 242.83 185.55 247.20 181.28 C 257.07 172.17 266.79 161.41 269.37 147.79 C 270.92 135.64 269.79 123.18 266.48 111.39 C 260.95 92.12 250.14 74.89 238.65 58.65 C 243.82 69.76 247.50 82.52 244.14 94.71 C 247.05 94.06 250.27 95.69 251.37 98.48 C 252.66 101.82 252.11 105.52 251.09 108.86 C 242.44 104.15 235.48 95.90 232.77 86.38 C 234.79 86.30 236.78 85.94 238.67 85.21 C 232.08 77.81 227.15 69.13 222.78 60.29 C 220.87 56.34 219.25 52.14 216.22 48.89 C 209.75 41.45 200.29 37.57 191.01 34.98 C 175.74 30.90 159.87 29.94 144.15 29.32 C 134.43 29.21 124.71 28.66 115.00 29.23 C 107.82 29.18 100.61 29.57 93.45 28.75 Z" />
</g>
<g>
<path   d=" M 93.45 28.75 C 100.61 29.57 107.82 29.18 115.00 29.23 C 124.71 28.66 134.43 29.21 144.15 29.32 C 159.87 29.94 175.74 30.90 191.01 34.98 C 200.29 37.57 209.75 41.45 216.22 48.89 C 219.25 52.14 220.87 56.34 222.78 60.29 C 227.15 69.13 232.08 77.81 238.67 85.21 C 236.78 85.94 234.79 86.30 232.77 86.38 C 235.48 95.90 242.44 104.15 251.09 108.86 C 252.11 105.52 252.66 101.82 251.37 98.48 C 250.27 95.69 247.05 94.06 244.14 94.71 C 247.50 82.52 243.82 69.76 238.65 58.65 C 250.14 74.89 260.95 92.12 266.48 111.39 C 269.79 123.18 270.92 135.64 269.37 147.79 C 266.79 161.41 257.07 172.17 247.20 181.28 C 242.83 185.55 237.01 188.58 234.21 194.26 C 232.67 197.37 231.25 201.39 233.24 204.63 C 235.58 207.51 240.10 206.76 242.80 204.81 C 248.00 200.72 250.69 194.47 253.67 188.75 C 251.98 205.78 249.20 223.71 238.80 237.84 C 233.88 244.71 226.71 249.78 218.81 252.68 C 224.15 247.87 227.96 241.64 230.19 234.83 C 215.09 243.50 197.81 246.66 181.15 250.93 C 177.81 251.56 176.18 256.09 178.51 258.63 C 181.06 261.68 185.49 260.54 188.93 260.43 C 195.89 260.04 202.33 257.23 208.76 254.83 C 200.31 262.94 190.80 270.02 180.28 275.23 C 169.05 280.85 156.88 284.43 144.55 286.65 C 145.57 283.83 146.56 280.96 146.75 277.94 C 126.90 281.69 105.13 281.97 86.97 271.98 C 70.31 262.72 57.60 246.43 52.94 227.92 C 48.91 212.51 48.35 195.23 55.88 180.78 C 62.70 168.68 73.69 159.41 85.60 152.55 C 94.29 147.84 104.08 143.76 114.16 145.22 C 122.26 146.27 129.81 150.15 138.04 150.27 C 154.22 148.69 170.23 143.05 182.93 132.72 C 179.62 137.42 180.30 143.77 182.38 148.83 C 186.18 159.21 182.15 170.99 174.95 178.89 C 168.07 186.98 156.43 188.45 149.44 196.43 C 146.58 199.35 145.25 203.94 147.24 207.71 C 150.60 214.52 157.36 218.97 164.14 221.93 C 169.93 224.70 176.23 221.24 181.01 217.94 C 191.97 209.33 198.31 196.15 202.08 183.01 C 199.56 167.28 198.67 150.31 205.76 135.56 C 207.34 143.86 206.96 152.49 209.44 160.62 C 210.26 163.14 212.00 166.01 215.01 166.00 C 218.82 165.64 221.40 162.28 223.06 159.13 C 226.16 152.63 227.03 145.21 226.33 138.09 C 225.42 131.66 220.33 126.17 214.10 124.51 C 209.13 123.19 203.79 123.48 198.91 125.03 C 200.63 123.02 201.54 120.55 201.94 117.97 C 190.07 110.97 186.10 96.40 186.21 83.42 C 188.83 89.01 190.86 95.25 195.75 99.35 C 198.62 102.01 203.31 101.72 206.26 99.35 C 208.01 97.34 208.45 94.56 208.47 91.99 C 208.01 84.09 204.46 76.55 199.14 70.77 C 195.35 67.26 189.76 66.75 184.83 67.04 C 177.87 67.74 170.63 70.95 166.73 76.97 C 164.26 82.26 167.84 87.84 171.60 91.45 C 178.52 97.74 182.50 108.12 178.94 117.17 C 178.88 110.94 176.37 103.67 170.06 101.33 C 158.91 102.00 147.31 102.13 136.66 98.29 C 129.54 95.78 124.25 89.82 121.10 83.12 C 123.60 84.20 126.20 85.00 128.88 85.48 C 127.35 82.60 126.32 79.45 126.41 76.15 C 130.14 77.93 134.31 78.61 138.40 78.00 C 136.40 75.30 135.36 71.99 135.61 68.61 C 139.42 71.83 144.32 73.39 149.28 73.45 C 149.46 67.37 148.07 60.54 142.85 56.76 C 141.89 51.67 140.41 46.22 136.44 42.62 C 133.43 39.90 128.58 39.76 125.47 42.39 C 120.21 46.67 118.33 53.54 116.98 59.90 C 116.10 64.53 112.37 68.09 107.78 68.97 C 109.37 66.09 110.86 62.96 110.42 59.57 C 100.57 60.34 90.55 63.42 83.07 70.10 C 78.92 74.49 76.47 80.13 73.78 85.46 C 70.14 93.04 64.46 99.33 59.44 106.00 C 64.39 94.18 70.19 82.17 70.39 69.11 C 70.39 66.53 69.28 62.65 66.01 63.00 C 62.64 63.84 62.04 67.93 61.42 70.82 C 59.78 82.72 55.00 93.81 50.26 104.74 C 50.23 100.66 50.52 96.44 49.07 92.55 C 43.25 98.09 39.75 105.44 35.79 112.31 C 38.80 101.22 42.19 90.20 46.37 79.49 C 50.65 68.87 56.05 58.37 64.48 50.43 C 68.24 46.80 73.23 44.88 78.09 43.20 C 87.71 40.04 97.71 38.26 107.71 36.76 C 102.46 35.20 96.98 33.18 93.45 28.75 Z" />
</g>
</svg>
