<?xml version="1.0" encoding="UTF-8" ?>

<svg width="300pt" height="300pt" viewBox="0 0 300 300" version="1.1" xmlns="http://www.w3.org/2000/svg">
<g id="#e6fcffff">
<path fill="#e6fcff"  d=" M 141.71 0.00 L 158.11 0.00 C 189.69 1.82 220.65 13.63 245.05 33.81 C 277.46 59.95 297.85 100.15 300.00 141.72 L 300.00 158.12 C 298.25 188.31 287.41 217.95 268.76 241.81 C 252.11 263.41 229.44 280.33 203.97 290.11 C 189.34 295.82 173.79 298.96 158.13 300.00 L 141.59 300.00 C 110.08 298.22 79.23 286.31 54.89 266.19 C 29.69 245.63 11.47 216.65 3.99 184.98 C 1.79 176.19 0.72 167.16 0.00 158.14 L 0.00 141.59 C 2.13 101.77 20.87 63.19 51.02 37.07 C 75.96 14.98 108.47 1.83 141.71 0.00 M 126.49 44.57 C 117.70 60.91 114.46 79.39 108.98 96.94 C 103.93 112.60 95.58 126.86 89.08 141.91 C 81.56 158.79 77.74 177.32 78.38 195.81 C 78.88 218.39 86.84 241.10 101.97 258.06 C 110.92 267.99 122.57 275.99 135.84 278.62 C 150.81 281.66 166.71 276.86 178.43 267.32 C 193.35 255.48 201.90 236.92 203.72 218.19 C 205.41 200.14 202.33 181.64 194.84 165.12 C 187.67 148.88 177.22 134.40 166.78 120.15 C 161.34 112.59 155.79 105.05 151.41 96.81 C 140.97 75.27 136.15 50.58 140.53 26.84 C 134.98 32.00 130.06 37.86 126.49 44.57 Z" />
<path fill="#e6fcff"  d=" M 145.72 144.39 C 155.71 150.38 164.69 158.80 169.06 169.81 C 173.60 180.93 173.73 193.31 172.02 205.05 C 171.37 209.37 167.95 214.37 163.00 213.48 C 158.91 212.54 158.08 207.67 158.34 204.13 C 159.63 193.15 159.79 181.90 157.19 171.09 C 154.98 161.59 150.76 152.69 145.72 144.39 Z" />
</g>
<g>
<path   d=" M 126.49 44.57 C 130.06 37.86 134.98 32.00 140.53 26.84 C 136.15 50.58 140.97 75.27 151.41 96.81 C 155.79 105.05 161.34 112.59 166.78 120.15 C 177.22 134.40 187.67 148.88 194.84 165.12 C 202.33 181.64 205.41 200.14 203.72 218.19 C 201.90 236.92 193.35 255.48 178.43 267.32 C 166.71 276.86 150.81 281.66 135.84 278.62 C 122.57 275.99 110.92 267.99 101.97 258.06 C 86.84 241.10 78.88 218.39 78.38 195.81 C 77.74 177.32 81.56 158.79 89.08 141.91 C 95.58 126.86 103.93 112.60 108.98 96.94 C 114.46 79.39 117.70 60.91 126.49 44.57 M 145.72 144.39 C 150.76 152.69 154.98 161.59 157.19 171.09 C 159.79 181.90 159.63 193.15 158.34 204.13 C 158.08 207.67 158.91 212.54 163.00 213.48 C 167.95 214.37 171.37 209.37 172.02 205.05 C 173.73 193.31 173.60 180.93 169.06 169.81 C 164.69 158.80 155.71 150.38 145.72 144.39 Z" />
</g>
</svg>
