<?xml version="1.0" encoding="UTF-8" ?>
<svg width="300pt" height="300pt" viewBox="0 0 300 300" version="1.1" xmlns="http://www.w3.org/2000/svg">
<g>
<path fill="#fffde6"  d=" M 141.66 0.00 L 158.16 0.00 C 192.36 1.93 225.77 15.77 251.03 38.95 C 280.01 65.00 297.93 102.75 300.00 141.65 L 300.00 158.17 C 298.22 188.83 287.02 218.90 267.87 242.95 C 251.32 263.99 229.02 280.48 204.03 290.09 C 189.41 295.81 173.87 298.94 158.23 300.00 L 141.57 300.00 C 111.22 298.26 81.46 287.20 57.58 268.35 C 31.01 247.67 11.74 217.80 4.00 185.02 C 1.80 176.24 0.74 167.23 0.00 158.22 L 0.00 141.57 C 2.17 101.02 21.59 61.78 52.67 35.64 C 77.36 14.40 109.16 1.82 141.66 0.00 M 150.41 14.51 C 147.48 15.22 145.84 17.91 144.74 20.48 C 139.11 32.87 135.07 45.92 131.81 59.11 C 130.59 64.13 127.22 69.17 121.96 70.46 C 118.69 70.70 115.79 68.37 114.34 65.59 C 110.83 58.88 107.53 52.04 104.89 44.93 C 104.37 43.79 104.14 42.33 102.97 41.63 C 101.50 41.28 100.43 42.67 99.70 43.70 C 93.66 52.78 87.41 61.79 82.57 71.58 C 81.34 73.89 80.72 77.15 82.77 79.20 C 84.83 81.52 87.26 83.76 87.94 86.93 C 88.78 89.61 88.37 93.94 84.93 94.43 C 77.74 95.17 70.90 92.34 63.88 91.40 C 57.52 90.66 50.64 90.49 44.83 93.59 C 42.07 94.99 39.38 97.77 40.03 101.13 C 40.99 107.04 43.92 112.63 48.28 116.76 C 51.66 121.78 52.48 128.34 51.27 134.20 C 50.50 136.65 49.76 140.29 46.59 140.46 C 39.68 140.47 32.73 140.63 25.92 141.87 C 21.72 142.69 17.26 143.95 14.33 147.27 C 11.15 150.61 10.47 155.46 10.31 159.89 C 10.23 163.86 12.01 168.38 16.01 169.82 C 22.29 172.39 28.63 168.33 35.04 168.98 C 41.80 169.52 48.73 171.59 54.15 175.77 C 56.61 177.51 56.34 181.39 53.69 182.81 C 47.75 186.28 40.53 186.38 34.34 189.26 C 33.21 190.05 32.59 191.38 33.15 192.73 C 34.42 194.66 36.96 194.63 38.93 195.35 C 50.21 198.80 61.40 202.72 71.97 207.98 C 75.47 209.91 79.39 211.79 81.50 215.35 C 83.54 218.89 81.99 222.99 80.49 226.40 C 77.46 232.80 75.69 239.92 76.06 247.02 C 76.22 249.41 76.90 253.03 80.06 252.84 C 84.09 251.65 86.12 247.63 88.70 244.67 C 93.50 239.12 99.16 234.42 104.37 229.28 C 106.58 227.09 109.80 225.50 112.95 226.42 C 116.29 227.40 117.82 230.98 118.49 234.09 C 120.72 249.14 122.97 264.22 126.47 279.03 C 127.73 282.71 129.38 287.87 133.91 288.30 C 139.59 287.17 143.98 282.93 148.06 279.09 C 153.36 273.39 158.79 267.03 160.17 259.13 C 161.74 252.65 162.62 245.81 165.95 239.94 C 168.16 236.52 174.33 233.70 177.13 237.92 C 183.66 248.63 189.61 259.78 197.51 269.58 C 198.45 270.89 200.25 271.89 201.80 270.91 C 203.01 269.50 203.07 267.56 203.37 265.83 C 205.45 250.66 207.83 235.39 213.02 220.93 C 214.95 214.96 222.68 213.70 228.05 214.89 C 233.92 217.36 238.51 222.72 245.01 223.70 C 250.14 224.56 254.66 221.42 258.45 218.39 C 261.98 215.50 262.08 209.98 259.76 206.31 C 254.09 196.90 243.33 191.77 238.23 181.94 C 236.64 179.28 237.63 175.70 240.39 174.29 C 250.88 167.91 261.89 162.20 271.42 154.37 C 275.67 150.48 276.88 144.44 277.42 138.94 C 277.71 135.15 278.63 131.20 277.39 127.49 C 276.01 124.62 272.41 124.96 269.89 125.90 C 261.01 129.05 252.24 132.81 242.89 134.38 C 240.22 134.94 236.28 134.20 236.28 130.78 C 236.81 124.49 242.28 120.55 246.30 116.33 C 252.61 109.64 259.53 103.23 263.88 95.01 C 265.45 92.15 266.28 87.89 263.55 85.45 C 260.58 83.09 256.40 83.56 252.99 84.59 C 243.17 88.44 232.64 90.35 222.13 90.90 C 219.62 90.80 216.05 90.87 215.10 87.94 C 212.63 81.45 215.96 74.71 219.18 69.14 C 221.64 64.72 225.80 61.75 229.19 58.13 C 231.12 55.89 232.68 51.45 229.52 49.61 C 223.97 47.64 217.80 47.39 212.02 48.46 C 204.84 50.14 199.58 55.59 194.15 60.18 C 189.06 64.84 181.83 66.87 175.04 66.11 C 170.89 64.94 168.50 60.85 167.05 57.08 C 163.22 45.77 160.74 33.94 160.44 21.98 C 160.46 17.06 155.07 13.18 150.41 14.51 Z" />
<path fill="#fffde6"  d=" M 140.52 84.87 C 152.75 83.02 165.56 84.82 176.63 90.42 C 192.25 98.00 204.24 112.45 209.17 129.06 C 213.83 144.71 212.39 162.18 204.82 176.70 C 197.72 190.77 185.14 202.00 170.28 207.29 C 157.74 211.87 143.67 212.00 130.99 207.86 C 114.79 202.61 101.13 190.27 93.94 174.88 C 87.16 160.71 85.93 144.01 90.51 128.99 C 97.09 106.44 117.14 88.26 140.52 84.87 M 140.56 92.67 C 125.68 95.18 112.24 104.48 104.23 117.21 C 97.13 128.32 94.24 141.99 96.03 155.03 C 97.87 170.19 106.35 184.37 118.80 193.20 C 128.09 199.87 139.57 203.45 151.02 203.07 C 167.73 202.97 183.93 194.15 193.55 180.57 C 202.86 167.92 206.04 151.30 202.97 135.99 C 199.81 119.82 189.02 105.29 174.32 97.79 C 164.04 92.37 151.97 90.80 140.56 92.67 Z" />
</g>
<g>
<path   d=" M 150.41 14.51 C 155.07 13.18 160.46 17.06 160.44 21.98 C 160.74 33.94 163.22 45.77 167.05 57.08 C 168.50 60.85 170.89 64.94 175.04 66.11 C 181.83 66.87 189.06 64.84 194.15 60.18 C 199.58 55.59 204.84 50.14 212.02 48.46 C 217.80 47.39 223.97 47.64 229.52 49.61 C 232.68 51.45 231.12 55.89 229.19 58.13 C 225.80 61.75 221.64 64.72 219.18 69.14 C 215.96 74.71 212.63 81.45 215.10 87.94 C 216.05 90.87 219.62 90.80 222.13 90.90 C 232.64 90.35 243.17 88.44 252.99 84.59 C 256.40 83.56 260.58 83.09 263.55 85.45 C 266.28 87.89 265.45 92.15 263.88 95.01 C 259.53 103.23 252.61 109.64 246.30 116.33 C 242.28 120.55 236.81 124.49 236.28 130.78 C 236.28 134.20 240.22 134.94 242.89 134.38 C 252.24 132.81 261.01 129.05 269.89 125.90 C 272.41 124.96 276.01 124.62 277.39 127.49 C 278.63 131.20 277.71 135.15 277.42 138.94 C 276.88 144.44 275.67 150.48 271.42 154.37 C 261.89 162.20 250.88 167.91 240.39 174.29 C 237.63 175.70 236.64 179.28 238.23 181.94 C 243.33 191.77 254.09 196.90 259.76 206.31 C 262.08 209.98 261.98 215.50 258.45 218.39 C 254.66 221.42 250.14 224.56 245.01 223.70 C 238.51 222.72 233.92 217.36 228.05 214.89 C 222.68 213.70 214.95 214.96 213.02 220.93 C 207.83 235.39 205.45 250.66 203.37 265.83 C 203.07 267.56 203.01 269.50 201.80 270.91 C 200.25 271.89 198.45 270.89 197.51 269.58 C 189.61 259.78 183.66 248.63 177.13 237.92 C 174.33 233.70 168.16 236.52 165.95 239.94 C 162.62 245.81 161.74 252.65 160.17 259.13 C 158.79 267.03 153.36 273.39 148.06 279.09 C 143.98 282.93 139.59 287.17 133.91 288.30 C 129.38 287.87 127.73 282.71 126.47 279.03 C 122.97 264.22 120.72 249.14 118.49 234.09 C 117.82 230.98 116.29 227.40 112.95 226.42 C 109.80 225.50 106.58 227.09 104.37 229.28 C 99.16 234.42 93.50 239.12 88.70 244.67 C 86.12 247.63 84.09 251.65 80.06 252.84 C 76.90 253.03 76.22 249.41 76.06 247.02 C 75.69 239.92 77.46 232.80 80.49 226.40 C 81.99 222.99 83.54 218.89 81.50 215.35 C 79.39 211.79 75.47 209.91 71.97 207.98 C 61.40 202.72 50.21 198.80 38.93 195.35 C 36.96 194.63 34.42 194.66 33.15 192.73 C 32.59 191.38 33.21 190.05 34.34 189.26 C 40.53 186.38 47.75 186.28 53.69 182.81 C 56.34 181.39 56.61 177.51 54.15 175.77 C 48.73 171.59 41.80 169.52 35.04 168.98 C 28.63 168.33 22.29 172.39 16.01 169.82 C 12.01 168.38 10.23 163.86 10.31 159.89 C 10.47 155.46 11.15 150.61 14.33 147.27 C 17.26 143.95 21.72 142.69 25.92 141.87 C 32.73 140.63 39.68 140.47 46.59 140.46 C 49.76 140.29 50.50 136.65 51.27 134.20 C 52.48 128.34 51.66 121.78 48.28 116.76 C 43.92 112.63 40.99 107.04 40.03 101.13 C 39.38 97.77 42.07 94.99 44.83 93.59 C 50.64 90.49 57.52 90.66 63.88 91.40 C 70.90 92.34 77.74 95.17 84.93 94.43 C 88.37 93.94 88.78 89.61 87.94 86.93 C 87.26 83.76 84.83 81.52 82.77 79.20 C 80.72 77.15 81.34 73.89 82.57 71.58 C 87.41 61.79 93.66 52.78 99.70 43.70 C 100.43 42.67 101.50 41.28 102.97 41.63 C 104.14 42.33 104.37 43.79 104.89 44.93 C 107.53 52.04 110.83 58.88 114.34 65.59 C 115.79 68.37 118.69 70.70 121.96 70.46 C 127.22 69.17 130.59 64.13 131.81 59.11 C 135.07 45.92 139.11 32.87 144.74 20.48 C 145.84 17.91 147.48 15.22 150.41 14.51 M 140.52 84.87 C 117.14 88.26 97.09 106.44 90.51 128.99 C 85.93 144.01 87.16 160.71 93.94 174.88 C 101.13 190.27 114.79 202.61 130.99 207.86 C 143.67 212.00 157.74 211.87 170.28 207.29 C 185.14 202.00 197.72 190.77 204.82 176.70 C 212.39 162.18 213.83 144.71 209.17 129.06 C 204.24 112.45 192.25 98.00 176.63 90.42 C 165.56 84.82 152.75 83.02 140.52 84.87 Z" />
<path   d=" M 140.56 92.67 C 151.97 90.80 164.04 92.37 174.32 97.79 C 189.02 105.29 199.81 119.82 202.97 135.99 C 206.04 151.30 202.86 167.92 193.55 180.57 C 183.93 194.15 167.73 202.97 151.02 203.07 C 139.57 203.45 128.09 199.87 118.80 193.20 C 106.35 184.37 97.87 170.19 96.03 155.03 C 94.24 141.99 97.13 128.32 104.23 117.21 C 112.24 104.48 125.68 95.18 140.56 92.67 Z" />
</g>
</svg>
